<svg version="1.1" xmlns="http://www.w3.org/2000/svg" xmlns:xlink="http://www.w3.org/1999/xlink" width="612" height="612" style="enable-background:new 0 0 612 612;" xml:space="preserve"><rect id="backgroundrect" width="100%" height="100%" x="0" y="0" fill="none" stroke="none"/>
















<g class="currentLayer" style=""><title>Layer 1</title><g id="svg_1" class="selected" fill="#ffffff" fill-opacity="1">
	<g id="group-add" fill="#ffffff" fill-opacity="1">
		<path d="M204,267.75h-76.5v-76.5h-51v76.5H0v51h76.5v76.5h51v-76.5H204V267.75z M459,293.25c43.35,0,76.5-33.15,76.5-76.5    s-33.15-76.5-76.5-76.5c-7.65,0-15.3,2.55-22.95,2.55c15.3,22.95,22.95,45.9,22.95,73.95s-7.65,51-22.95,73.95    C443.7,290.7,451.35,293.25,459,293.25z M331.5,293.25c43.35,0,76.5-33.15,76.5-76.5s-33.15-76.5-76.5-76.5    c-43.35,0-76.5,33.15-76.5,76.5S288.15,293.25,331.5,293.25z M499.8,349.35c20.4,17.851,35.7,43.351,35.7,71.4v51H612v-51    C612,382.5,550.8,357,499.8,349.35z M331.5,344.25c-51,0-153,25.5-153,76.5v51h306v-51C484.5,369.75,382.5,344.25,331.5,344.25z" id="svg_2" fill="#ffffff" fill-opacity="1"/>
	</g>
</g><g id="svg_3">
</g><g id="svg_4">
</g><g id="svg_5">
</g><g id="svg_6">
</g><g id="svg_7">
</g><g id="svg_8">
</g><g id="svg_9">
</g><g id="svg_10">
</g><g id="svg_11">
</g><g id="svg_12">
</g><g id="svg_13">
</g><g id="svg_14">
</g><g id="svg_15">
</g><g id="svg_16">
</g><g id="svg_17">
</g></g></svg>