<svg version="1.1" xmlns="http://www.w3.org/2000/svg" xmlns:xlink="http://www.w3.org/1999/xlink" enable-background="new 0 0 1000 1000" xml:space="preserve" width="1000" height="1000"><rect id="backgroundrect" width="100%" height="100%" x="0" y="0" fill="none" stroke="none"/>
<metadata> Svg Vector Icons : http://www.onlinewebfonts.com/icon </metadata>

<g class="currentLayer" style=""><title>Layer 1</title><g id="svg_1" class="selected" fill="#ffffff" fill-opacity="1"><path d="M399.20001220703125,558.5064638257027 C479.70001220703125,527.2064760327339 537,449.10643941164017 537,357.60643941164017 c0,-118.9000015258789 -96.69999694824219,-215.60000610351562 -215.60000610351562,-215.60000610351562 c-118.9000015258789,0 -215.60000610351562,96.69999694824219 -215.60000610351562,215.60000610351562 c0,91.4000015258789 57.29999923706055,169.60000610351562 137.8000030517578,200.8000030517578 C109.5,593.2064760327339 10,714.8064516186714 10,859.6064394116402 h42.900001525878906 c0,-148 120.4000015258789,-268.3999938964844 268.3999938964844,-268.3999938964844 c148,0 268.3999938964844,120.4000015258789 268.3999938964844,268.3999938964844 h42.900001525878906 C632.7000122070312,714.8064516186714 533.2999877929688,593.2064760327339 399.20001220703125,558.5064638257027 zM148.6999969482422,357.60643941164017 c0,-95.19999694824219 77.5,-172.6999969482422 172.6999969482422,-172.6999969482422 c95.19999694824219,0 172.6999969482422,77.5 172.6999969482422,172.6999969482422 c0,95.19999694824219 -77.5,172.6999969482422 -172.6999969482422,172.6999969482422 C226.1999969482422,530.3064516186714 148.6999969482422,452.8064516186714 148.6999969482422,357.60643941164017 zM933.5,865.5064638257027 H740.5 v-39.099998474121094 h193.10000610351562 c9.600000381469727,0 17.399999618530273,-7.800000190734863 17.399999618530273,-17.399999618530273 V192.60645467042923 c0,-9.600000381469727 -7.800000190734863,-17.399999618530273 -17.399999618530273,-17.399999618530273 H480 v-39.099998474121094 h453.6000061035156 c31.100000381469727,0 56.5,25.299999237060547 56.5,56.5 v616.5 C990,840.2064760327339 964.7000122070312,865.5064638257027 933.5,865.5064638257027 zM571.9000244140625,265.2064455151558 H877 v44.5 H571.9000244140625 V265.2064455151558 zM571.9000244140625,404.2064455151558 H877 v44.5 H571.9000244140625 V404.2064455151558 zM652.2000122070312,552.3064516186714 H877 V596.8064516186714 H652.2000122070312 V552.3064516186714 z" id="svg_2" fill="#ffffff" fill-opacity="1"/></g></g></svg>